<svg width="45" height="45" viewBox="0 0 45 45" fill="none" xmlns="http://www.w3.org/2000/svg">
<rect width="45" height="45" rx="12" fill="#F8F4F3"/>
<rect x="0.5" y="0.5" width="44" height="44" rx="11.5" stroke="#2B1A16" stroke-opacity="0.15"/>
<g opacity="0.5" clip-path="url(#clip0_2_4850)">
<path d="M30.9162 23.2463L29.4912 18.1193C29.0736 16.6173 28.1658 15.298 26.9122 14.3711C25.6587 13.4443 24.1313 12.963 22.5728 13.0039C21.0144 13.0447 19.5143 13.6054 18.311 14.5966C17.1078 15.5879 16.2704 16.9529 15.932 18.4748L14.8287 23.436C14.7069 23.9842 14.7097 24.5528 14.837 25.0998C14.9643 25.6467 15.2128 26.1581 15.5642 26.5962C15.9156 27.0342 16.3609 27.3878 16.8672 27.6307C17.3735 27.8737 17.9279 27.9998 18.4895 27.9998H19.325C19.4971 28.8475 19.957 29.6096 20.6268 30.157C21.2966 30.7045 22.135 31.0035 23 31.0035C23.865 31.0035 24.7034 30.7045 25.3732 30.157C26.0429 29.6096 26.5029 28.8475 26.675 27.9998H27.3035C27.8816 27.9998 28.4519 27.8662 28.9698 27.6093C29.4877 27.3525 29.9392 26.9794 30.2891 26.5192C30.639 26.0589 30.8777 25.5241 30.9866 24.9563C31.0955 24.3885 31.0709 23.8033 30.9162 23.2463ZM23 29.4998C22.5363 29.4978 22.0845 29.3527 21.7065 29.0842C21.3284 28.8157 21.0425 28.4369 20.888 27.9998H25.112C24.9574 28.4369 24.6716 28.8157 24.2935 29.0842C23.9155 29.3527 23.4637 29.4978 23 29.4998ZM29.0945 25.611C28.8855 25.8883 28.6147 26.113 28.3037 26.2672C27.9927 26.4215 27.6499 26.5011 27.3027 26.4998H18.4895C18.1526 26.4997 17.82 26.424 17.5162 26.2782C17.2125 26.1324 16.9454 25.9203 16.7346 25.6574C16.5238 25.3946 16.3748 25.0878 16.2984 24.7597C16.2221 24.4315 16.2204 24.0904 16.2935 23.7615L17.396 18.7995C17.6618 17.6042 18.3195 16.532 19.2646 15.7534C20.2097 14.9747 21.388 14.5344 22.6121 14.5023C23.8362 14.4703 25.0359 14.8483 26.0205 15.5764C27.005 16.3044 27.718 17.3407 28.046 18.5205L29.471 23.6475C29.5651 23.9815 29.5801 24.3329 29.5148 24.6738C29.4494 25.0146 29.3055 25.3355 29.0945 25.611Z" fill="#2B1A16"/>
</g>
<defs>
<clipPath id="clip0_2_4850">
<rect width="18" height="18" fill="white" transform="translate(14 13)"/>
</clipPath>
</defs>
</svg>
