<svg width="16" height="16" viewBox="0 0 16 16" fill="none" xmlns="http://www.w3.org/2000/svg">
<g opacity="0.68">
<path d="M8.00004 16C7.18871 16 6.32471 15.5707 5.74471 14.8807C2.90004 11.4967 1.33337 8.57933 1.33337 6.66667C1.33337 2.99067 4.32404 0 8.00004 0C11.676 0 14.6667 2.99067 14.6667 6.66667C14.6667 8.57933 13.1 11.4967 10.2554 14.8807C9.67604 15.5707 8.81137 16 8.00004 16ZM8.00004 0.666667C4.69204 0.666667 2.00004 3.35867 2.00004 6.66667C2.00004 8.39667 3.55137 11.2347 6.25537 14.452C6.70471 14.9873 7.39004 15.3327 8.00004 15.3327C8.61004 15.3327 9.29471 14.9867 9.74471 14.452C12.4494 11.2347 14 8.39667 14 6.66667C14 3.358 11.3087 0.666667 8.00004 0.666667Z" fill="#2B1A16"/>
<path d="M8.00004 9.33333C6.52937 9.33333 5.33337 8.13733 5.33337 6.66667C5.33337 5.196 6.52937 4 8.00004 4C9.47071 4 10.6667 5.196 10.6667 6.66667C10.6667 8.13733 9.47071 9.33333 8.00004 9.33333ZM8.00004 4.66667C6.89737 4.66667 6.00004 5.564 6.00004 6.66667C6.00004 7.76933 6.89737 8.66667 8.00004 8.66667C9.10271 8.66667 10 7.76933 10 6.66667C10 5.564 9.10271 4.66667 8.00004 4.66667Z" fill="#2B1A16"/>
</g>
</svg>
