<svg width="9" height="9" viewBox="0 0 9 9" fill="none" xmlns="http://www.w3.org/2000/svg">
<path d="M0.190405 7.19028C-0.0634357 7.44412 -0.0634357 7.85568 0.190405 8.10952C0.444246 8.36336 0.855803 8.36336 1.10964 8.10952L0.650024 7.6499L0.190405 7.19028ZM8.30002 0.649902C8.30002 0.290917 8.00901 -9.74934e-05 7.65002 -9.77358e-05L1.80002 -9.74829e-05C1.44104 -9.78201e-05 1.15002 0.290917 1.15002 0.649902C1.15002 1.00889 1.44104 1.2999 1.80002 1.2999L7.00002 1.2999L7.00002 6.4999C7.00002 6.85889 7.29104 7.1499 7.65002 7.1499C8.00901 7.1499 8.30002 6.85889 8.30002 6.4999L8.30002 0.649902ZM0.650024 7.6499L1.10964 8.10952L8.10964 1.10952L7.65002 0.649902L7.19041 0.190283L0.190405 7.19028L0.650024 7.6499Z" fill="#3C79E6"/>
</svg>
