<svg width="17" height="17" viewBox="0 0 17 17" fill="none" xmlns="http://www.w3.org/2000/svg">
<g clip-path="url(#clip0_3_683)">
<path d="M1.94849 2.91846H4.427C4.67331 2.91846 4.87329 3.11844 4.87329 3.36475C4.87329 3.61105 4.6733 3.81104 4.427 3.81104H1.94849C1.41349 3.81104 0.977783 4.24674 0.977783 4.78174V15.0522C0.977849 15.5871 1.41352 16.022 1.94849 16.022H15.052C15.587 16.022 16.0226 15.5871 16.0227 15.0522V9.03174C16.0227 8.78543 16.2227 8.58545 16.469 8.58545C16.7152 8.58554 16.9153 8.78549 16.9153 9.03174V15.0522C16.9152 16.0797 16.0796 16.9146 15.052 16.9146H1.94849C0.920923 16.9146 0.0852712 16.0797 0.0852051 15.0522V4.78174C0.0852051 3.75413 0.920879 2.91846 1.94849 2.91846Z" fill="#2D2D2D" stroke="#F8F8F8" stroke-width="0.17"/>
<path d="M11.6985 0.117188C11.8667 0.0496255 12.0598 0.0904728 12.1858 0.22168L16.7903 5.00293C16.9568 5.17544 16.9568 5.44956 16.7903 5.62207L12.1858 10.4033C12.0599 10.5345 11.8654 10.5749 11.6985 10.5078C11.5293 10.4393 11.4182 10.2757 11.4182 10.0938V7.70703H10.4924C8.23197 7.70703 6.19996 8.96314 5.1897 10.9844H5.18872C5.11164 11.1396 4.94939 11.2393 4.78052 11.2393C4.74796 11.2392 4.71598 11.2355 4.68481 11.2275H4.68286C4.47884 11.18 4.33521 11.0061 4.33521 10.8018V9.73926C4.33545 5.97846 7.39564 2.91895 11.1565 2.91895H11.4182V0.53125C11.4183 0.372076 11.5034 0.22716 11.6379 0.147461L11.6985 0.117188ZM12.3108 3.36523C12.3105 3.61132 12.1106 3.81055 11.8645 3.81055H11.1565C8.13817 3.81055 5.63869 6.07795 5.27271 8.99902L5.2395 9.26953L5.42017 9.06641C6.69176 7.6479 8.51636 6.81445 10.4924 6.81445H11.8645C12.1108 6.81445 12.3108 7.01444 12.3108 7.26074V8.9873L12.4573 8.83496L15.7922 5.37109L15.8499 5.3125L15.7922 5.25391L12.4573 1.79004L12.3108 1.6377V3.36523Z" fill="#2D2D2D" stroke="#F8F8F8" stroke-width="0.17"/>
</g>
<defs>
<clipPath id="clip0_3_683">
<rect width="17" height="17" fill="white"/>
</clipPath>
</defs>
</svg>
